<svg width="161px" height="56px" viewBox="0 0 161 56" version="1.1" xmlns="http://www.w3.org/2000/svg" xmlns:xlink="http://www.w3.org/1999/xlink">
    <defs>
        <polygon id="path-1" points="0.09155 0.443148148 5.93155 0.443148148 5.93155 25 0.09155 25"></polygon>
        <polygon id="path-3" points="0.3218075 0.443287037 36.8722575 0.443287037 36.8722575 25 0.3218075 25"></polygon>
    </defs>
    <g id="Page-1" stroke="none" stroke-width="1" fill="none" fill-rule="evenodd">
        <g id="HP-Easymile" transform="translate(-150.000000, -44.000000)">
            <g id="Page-1" transform="translate(150.000000, 44.000000)">
                <path d="M140.27061,18.7902615 C139.784351,18.2646631 139.19536,18 138.500214,18 C137.805068,18 137.216077,18.2646631 136.730246,18.7902615 C136.24313,19.3195876 136,19.9644708 136,20.7211835 L136,23.2825441 C136,24.0355292 136.24313,24.6804124 136.730246,25.2060108 C137.216077,25.7353369 137.805068,26 138.500214,26 C139.19536,26 139.784351,25.7353369 140.27061,25.2060108 C140.75687,24.6804124 141,24.0355292 141,23.2825441 L141,20.7211835 C141,19.9644708 140.75687,19.3195876 140.27061,18.7902615" id="Fill-1" fill="#58585A"></path>
                <path d="M158.499978,5 C159.875811,5 160.992159,3.88903929 160.999957,2.51473974 C161.008187,1.1555995 159.84722,-0.0064697351 158.487416,2.71111648e-05 C157.112449,0.00695708052 156,1.12354839 156,2.50001356 C156,3.88124307 157.11938,5 158.499978,5" id="Fill-3" fill="#40B4A7"></path>
                <path d="M12.5001948,16 C13.8759084,16 14.9921596,14.8890393 14.9999565,13.5147397 C15.0081865,12.1555995 13.8473199,10.9935303 12.4876332,11.0000271 C11.112786,11.0069571 10,12.1235484 10,13.5000136 C10,14.8812431 11.1192833,16 12.5001948,16" id="Fill-5" fill="#40B4A7"></path>
                <path d="M154.294895,4.71491898 C153.656653,4.71491898 153.018412,4.97769776 152.38017,5.51076328 C149.938525,7.67681121 147.336856,9.06578475 146.060373,9.6363901 C144.78389,10.2074647 143.582085,10.5490771 142.453566,10.6616966 C141.325047,10.77807 140.030011,10.8343798 138.564281,10.8343798 C137.099016,10.8343798 135.785426,10.7668081 134.6198,10.6354187 C133.454638,10.5002753 132.226394,10.147401 130.927183,9.58008036 C129.632147,9.00947501 128.166418,8.12353513 126.53417,6.9260147 C125.168167,5.93120933 123.535456,4.60605349 121.635574,2.95805515 C121.56507,2.89799143 121.490856,2.83417373 121.416178,2.77035603 C121.234817,2.60893478 121.048818,2.44751353 120.859572,2.2823383 C119.976888,1.6141294 118.944848,1.21996124 117.865032,1.1411276 L88.4080507,1.1411276 C87.3546738,1.1411276 86.3778303,1.34008868 85.4765924,1.74176481 C84.5748907,2.13968696 83.7845102,2.68026045 83.1091615,3.36348527 C82.4338129,4.05046407 81.8990073,4.84630837 81.5024255,5.75852613 C81.1090906,6.67074389 80.9119593,7.66179528 80.9119593,8.72417234 C80.9119593,9.7865494 81.1090906,10.77807 81.5024255,11.6902878 C81.8990073,12.6025056 82.4338129,13.3983499 83.1091615,14.0853287 C83.7845102,14.7685535 84.5748907,15.309127 85.4765924,15.7070491 C86.3778303,16.1087252 87.3546738,16.3076863 88.4080507,16.3076863 L115.412719,16.3076863 C115.976746,16.3076863 116.466559,16.5141554 116.877984,16.9346014 C117.290336,17.3512935 117.497672,17.8655891 117.497672,18.4737343 C117.497672,19.0443396 117.290336,19.5290726 116.877984,19.9269947 C116.466559,20.3249169 115.976746,20.523878 115.412719,20.523878 L84.2631913,20.523878 C83.5284714,20.523878 82.83828,20.1747576 82.396242,19.5816283 L69.9913496,2.7966339 C69.1967945,1.70797897 68.1132681,0.915888651 66.7403067,0.416139725 C66.1762792,0.213424667 65.5899876,0.0820352785 64.9921,0.0294795229 C63.5268347,-0.094401901 62.168716,0.17213086 60.9182079,0.829547052 C59.8643672,1.3776285 59.0215729,2.09088519 58.3828675,2.96556312 L46.3045173,19.4089452 C45.788729,20.1109399 44.9723736,20.523878 44.1077789,20.523878 L15.8345131,20.523878 L11.6149758,20.523878 C10.2990664,20.523878 9.23734046,20.2869078 8.42933408,19.8106213 C7.62086386,19.3352732 6.98169463,18.7552829 6.51229024,18.0706504 C6.04195817,17.3860178 5.72283739,16.6356905 5.5535364,15.8173224 C5.38469924,15.0003619 5.29981683,14.2490961 5.29981683,13.5644636 C5.29981683,12.879831 5.38469924,12.1295038 5.5535364,11.3111356 C5.72283739,10.4937059 6.04195817,9.7424401 6.51229024,9.05827679 C6.98169463,8.37317497 7.62086386,7.79412316 8.42933408,7.31783663 C9.23734046,6.84295784 10.2990664,6.60504919 11.6149758,6.60504919 L33.1495982,6.60504919 C34.4265451,6.60504919 35.4794582,6.84295784 36.3064819,7.31783663 C37.1330418,7.79412316 37.7819517,8.37317497 38.2522837,9.05827679 C38.627529,9.60448125 38.9025851,10.1962027 39.0853374,10.8278103 L18.9853669,10.8278103 C18.3503723,10.8278103 17.7223351,11.0417873 17.2427263,11.4622334 C16.6017017,12.0243922 16.2797979,12.72451 16.2797979,13.5639943 C16.2797979,14.4048864 16.6026294,15.1054734 17.2455093,15.6681015 C17.725582,16.0876091 18.3517638,16.3011169 18.9853669,16.3011169 L39.0853374,16.3011169 L40.4680395,16.3011169 L42.5543843,16.3011169 C43.6977458,16.3011169 44.6792277,15.4165847 44.7450928,14.2617658 C44.7576164,14.0290189 44.7650378,13.7967412 44.7650378,13.5644636 C44.7650378,12.1581279 44.5391485,10.7320838 44.0878338,9.28586198 C43.6365191,7.84151719 42.988537,6.5295003 42.1424959,5.35028053 C41.2969186,4.17199926 40.2722997,3.19220981 39.0695669,2.41231994 C37.8663702,1.63336856 36.4943364,1.20541455 34.9539293,1.12892716 L10.3746721,1.12892716 C8.75819546,1.12892716 7.31055602,1.50948714 6.03314524,2.26966861 C4.75434294,3.03125781 3.66478669,4.00963951 2.76262113,5.20762919 C1.86045557,6.40561887 1.17397483,7.73687493 0.704570433,9.20092812 C0.23423836,10.6654506 0,12.1196495 0,13.5644636 C0,14.972207 0.225425431,16.4170211 0.676740132,17.8993749 C1.127591,19.382198 1.77510931,20.722839 2.62161428,21.9208287 C3.46672772,23.1192876 4.49088277,24.0986078 5.69500709,24.8587893 C6.89681222,25.6203785 8.26884602,26 9.81110848,26 L21.3240398,26 L40.6419788,25.9971845 L45.3100479,25.9859226 C46.9464695,25.9821686 48.6571053,25.25765 49.6705921,23.955018 C49.6749212,23.9500127 50.4541696,22.9039029 52.0083373,20.8166886 L55.9671975,15.5005801 L62.1575839,7.1850395 C62.3834732,6.88096691 62.6919257,6.54686246 63.0885074,6.18648014 C63.4823062,5.82609782 63.8867732,5.64590665 64.2986617,5.64590665 C64.7142608,5.64590665 65.1150171,5.82609782 65.5120628,6.18648014 C65.9053977,6.54686246 66.2356506,6.88096691 66.4954,7.1850395 L75.7503663,19.6792319 L78.9309058,23.955018 C79.877136,25.1863243 81.4500118,25.9108429 83.0015511,25.9971845 L115.190076,25.9971845 C116.239742,25.9971845 117.22679,25.8094854 118.147509,25.4303331 C119.067765,25.0474269 119.865567,24.5181154 120.540915,23.8311366 C121.219975,23.1479118 121.754316,22.3520675 122.147651,21.4360957 C122.540522,20.523878 122.741364,19.5365806 122.741364,18.4737343 C122.741364,17.4113572 122.540522,16.4127978 122.147651,15.4818102 C121.754316,14.5508225 121.219975,13.7399623 120.540915,13.0567374 C119.865567,12.3735126 119.067765,11.8329391 118.147509,11.431263 C117.22679,11.0333409 116.239742,10.8343798 115.190076,10.8343798 L88.2930188,10.8343798 C87.7294552,10.8343798 87.2317567,10.6241568 86.8013147,10.2074647 C86.367162,9.7865494 86.151941,9.29477769 86.151941,8.72417234 C86.151941,8.11602717 86.367162,7.61299351 86.8013147,7.21507136 C87.2317567,6.81339523 87.7294552,6.61443415 88.2930188,6.61443415 L117.286626,6.61443415 C117.475408,6.61443415 117.657696,6.68200584 117.798703,6.80588726 C119.553867,8.33751214 121.164314,9.66642196 122.614736,10.77807 C124.307746,12.06944 125.895929,13.1243091 127.380212,13.9426773 C128.86032,14.7572915 130.281984,15.3579287 131.632681,15.737081 C132.987089,16.1162332 134.375357,16.3076863 135.80398,16.3076863 L141.21419,16.3076863 C142.490673,16.3076863 143.815859,16.1162332 145.188357,15.737081 C146.558071,15.3579287 148.005247,14.7572915 149.526637,13.9426773 C151.047563,13.1243091 153.864917,11.4425249 155.93178,9.61762018 C156.232348,9.35108742 156.484676,9.02824493 156.692011,8.64909269 C156.896564,8.26994045 157,7.86826432 157,7.45157226 C157,6.6895138 156.737004,6.0438288 156.213794,5.51076328 C155.68641,4.97769776 155.044458,4.71491898 154.294895,4.71491898 Z" id="Fill-7" fill="#58585A"></path>
                <path d="M157.372544,35.2410841 C156.524618,34.0571639 155.497716,33.0731569 154.292768,32.2895347 C153.085961,31.506384 151.711335,31.0768534 150.167495,31 L124.397789,31 C122.778175,31 121.32731,31.3823812 120.047053,32.1457292 C118.765401,32.9109632 117.672953,33.8940271 116.768777,35.09775 C115.865066,36.3014729 115.176591,37.6395715 114.70614,39.1101597 C114.235225,40.5812195 114,42.0433208 114,43.4945778 C114,44.9090583 114.225928,46.3607868 114.678248,47.8502348 C115.130103,49.3406258 115.779994,50.6876827 116.627456,51.8909341 C117.475382,53.0951285 118.501354,54.079607 119.707232,54.8434264 C120.912645,55.6086604 122.287271,55.9896271 123.83297,55.9896271 L128.746665,55.9896271 C128.831737,55.9957566 128.917738,56 129.002809,56 L155.289918,56 C156.04487,56 156.684534,55.7321917 157.216812,55.1965751 C157.741188,54.6609585 158.00477,54.0121834 158.00477,53.2464779 C158.00477,52.4807725 157.741188,51.8319974 157.216812,51.2963808 C156.684534,50.7607642 156.04487,50.4929559 155.289918,50.4929559 L135.372019,50.4929559 L125.641321,50.487298 C124.322015,50.487298 123.257923,50.2491937 122.448581,49.7706278 C121.637845,49.2930049 120.997716,48.710239 120.526801,48.0228014 C120.055421,47.3348924 119.736054,46.5805028 119.566376,45.7582181 C119.396697,44.9373479 119.312091,44.1829583 119.312091,43.4945778 C119.312091,42.8071403 119.396697,42.0532222 119.566376,41.2299945 C119.736054,40.4095958 120.055421,39.6547347 120.526801,38.9668257 C120.997716,38.2789167 121.637845,37.6970937 122.448581,37.2185278 C123.257923,36.7409049 124.322015,36.5023292 125.641321,36.5023292 L148.358679,36.5023292 C149.638936,36.5023292 150.694195,36.7409049 151.523991,37.2185278 C152.351463,37.6970937 153.001354,38.2789167 153.473199,38.9668257 C153.84928,39.5161156 154.124485,40.109726 154.308574,40.7448277 L126.289817,40.7448277 C125.652943,40.7448277 125.023506,40.9603002 124.543294,41.3827584 C123.900376,41.9476076 123.57822,42.6506045 123.57822,43.4941063 C123.57822,44.3394942 123.901771,45.043434 124.545618,45.6087547 C125.027225,46.0297984 125.654337,46.2447994 126.289817,46.2447994 L154.308574,46.2447994 L155.693892,46.2447994 L157.238196,46.2447994 C158.733224,46.2447994 159.996746,45.038719 160,43.5219244 C160,42.0815118 159.774537,40.648643 159.321752,39.1959716 C158.869432,37.7442431 158.219541,36.4259472 157.372544,35.2410841 Z" id="Fill-9" fill="#40B4A7"></path>
                <g id="Group-13" transform="translate(62.000000, 31.000000)">
                    <mask id="mask-2" fill="white">
                        <use xlink:href="#path-1"></use>
                    </mask>
                    <g id="Clip-12"></g>
                    <path d="M3.01155,0.443148148 C2.19955,0.443148148 1.51155,0.706111111 0.94355,1.22833333 C0.37555,1.75425926 0.09155,2.395 0.09155,3.14685185 L0.09155,22.2959259 C0.09155,23.0477778 0.37555,23.6852778 0.94355,24.2112037 C1.51155,24.7371296 2.19955,25.0000926 3.01155,25.0000926 C3.82355,25.0000926 4.51155,24.7371296 5.07955,24.2112037 C5.64755,23.6852778 5.93155,23.0477778 5.93155,22.2959259 L5.93155,3.14685185 C5.93155,2.395 5.64755,1.75425926 5.07955,1.22833333 C4.51155,0.706111111 3.82355,0.443148148 3.01155,0.443148148" id="Fill-11" fill="#40B4A7" mask="url(#mask-2)"></path>
                </g>
                <g id="Group-16" transform="translate(74.000000, 31.000000)">
                    <mask id="mask-4" fill="white">
                        <use xlink:href="#path-3"></use>
                    </mask>
                    <g id="Clip-15"></g>
                    <path d="M34.1749575,19.5923611 L7.85917,19.5923611 C7.29677,19.5923611 6.80097,19.3849537 6.36807,18.9733796 C5.93887,18.5590278 5.72427,18.0738426 5.72427,17.506713 L5.72427,3.14699074 C5.72427,2.39513889 5.45047,1.75439815 4.90657,1.22800926 C4.36267,0.70625 3.73367,0.443287037 3.02327,0.443287037 C2.27217,0.443287037 1.6316075,0.70625 1.1099075,1.22800926 C0.5808075,1.75439815 0.3218075,2.39513889 0.3218075,3.14699074 L0.3218075,17.506713 C0.3218075,18.5590278 0.5253075,19.5368056 0.9397075,20.4363426 C1.3504075,21.3368056 1.9054075,22.1256944 2.60147,22.8034722 C3.29337,23.4775463 4.10737,24.0145833 5.04717,24.4071759 C5.98327,24.8039352 6.97857,25.0002315 8.02937,25.0002315 L34.1749575,25.0002315 C34.9223575,25.0002315 35.5587575,24.7368056 36.0878575,24.2113426 C36.6095575,23.6849537 36.8722575,23.0479167 36.8722575,22.2960648 C36.8722575,21.544213 36.6095575,20.9071759 36.0878575,20.380787 C35.5587575,19.8548611 34.9223575,19.5923611 34.1749575,19.5923611" id="Fill-14" fill="#40B4A7" mask="url(#mask-4)"></path>
                </g>
                <path d="M51.1792408,31.465712 C48.7703192,30.4529086 46.0821023,31.1141097 43.9878533,33.2341062 C40.4398725,36.8284727 31.9879323,45.1173195 30.8349084,46.1579678 C29.7735864,47.116497 29.2592176,47.4091056 28.5,47.4737627 C27.7407824,47.4091056 27.2259481,47.116497 26.1641606,46.156552 C25.0120677,45.1173195 16.5601275,36.8284727 13.0112157,33.2341062 C10.9178977,31.1136377 8.22968083,30.4538525 5.82075919,31.465712 C3.53519296,32.4266009 2,34.7514235 2,37.2513393 L2,53.2886509 C2,54.7861462 3.19724569,56 4.67378665,56 C6.1503276,56 7.34803879,54.7861462 7.34803879,53.2886509 L7.34803879,37.2513393 C7.34803879,36.9389088 7.5770609,36.5972175 7.86892445,36.4745106 C8.34605386,36.2739321 8.926988,36.7623997 9.23188533,37.0710546 C12.6560452,40.5394106 21.2825449,49.0104298 22.6082664,50.2068215 C23.9735548,51.4400252 25.6581707,52.7671468 28.3691967,52.9016524 C28.4152804,52.9035402 28.4581057,52.8945731 28.5032584,52.8941012 C28.5460837,52.8945731 28.587047,52.9035402 28.6303378,52.9016524 C28.7285566,52.8964609 28.8151382,52.8794708 28.910564,52.8714476 C31.4540129,52.6604863 33.0753219,51.3956619 34.3917336,50.2077654 C35.7174551,49.0104298 44.3434893,40.5394106 47.7681147,37.0710546 C48.072081,36.7623997 48.6530152,36.2729882 49.1310756,36.4745106 C49.4229391,36.5972175 49.6519612,36.9389088 49.6519612,37.2513393 L49.6519612,53.2886509 C49.6519612,54.7861462 50.8492069,56 52.3257479,56 C53.8022888,56 55,54.7861462 55,53.2886509 L55,37.2513393 C55,34.7514235 53.4643415,32.4266009 51.1792408,31.465712" id="Fill-17" fill="#40B4A7"></path>
            </g>
        </g>
    </g>
</svg>
