<svg id="Layer_1" data-name="Layer 1" xmlns="http://www.w3.org/2000/svg" viewBox="0 0 2048 515"><defs><style>.cls-1{isolation:isolate;}</style></defs><title>optimus_ride_logo</title><g class="cls-1"><path d="M584.5,307.5V49.2H717.1c45.7,0,75.5,27.7,75.5,73.7,0,45.7-29.8,74.8-75.5,74.8H671.4c-16.6,0-33.6,2.1-49.2,10.4v99.4H584.5ZM717.1,159.6c24.6,0,38.1-11.8,38.1-36.7,0-26-13.2-36-38.1-36H622.2V170c15.6-9,32.2-10.4,49.2-10.4h45.7Z"/><path d="M949.1,87.3V307.5H912.4V87.3H820.3V49.2h219.9V87.3H949.1Z"/><path d="M1088.6,307.5V49.2h37V307.5h-37Z"/><path d="M1334.1,235.5l-87.6-105.6V307.5h-37V85.5l-30.1-36.4h48.8l105.6,126.7,107-126.7h48.8l-30.1,36.4V307.4h-37V129.9Z"/><path d="M1539.7,207.1V49.2h37.4V207.1c0,44.3,28.4,68.6,78.6,68.6s78.6-24.2,78.6-68.6V49.2h37.4V207.1c0,67.2-42.9,106.3-116,106.3S1539.7,274.2,1539.7,207.1Z"/><path d="M1929.9,313.4c-39.5,0-80.3-19.4-106.3-53l27-25.3c13.5,16.3,38.8,40.5,79.3,40.5,38.1,0,76.5-14.5,76.5-46.7,0-39.5-39.1-39.5-76.5-39.5-61.6,0-95.2-22.9-95.2-66.8,0-41.9,39.8-81,95.2-81,39.1,0,73.1,11.1,103.9,40.9l-23.5,27.7c-27.7-22.5-47.4-30.5-80.3-30.5-29.1,0-53.3,20.1-53.3,42.6,0,15.6,11.1,29.8,55,29.8,90.4,0,113.6,28,113.6,76.9C2045.2,280.8,1995.3,313.4,1929.9,313.4Z"/></g><g class="cls-1"><path d="M1646.3,438.9a51.47,51.47,0,0,1-5.6.2h-29.3v37.2h-20.8V352.7h50.1c31.6,0,49.8,15.4,49.8,42.2,0,19.8-9.2,33.7-25.6,40.1l27.7,41.3h-23.7Zm-5.7-18.6c19.1,0,30-8.1,30-24.9,0-16.2-10.9-24-30-24h-29.3v48.9h29.3Z"/><path d="M1718.1,476.3V352.7h20.8V476.2h-20.8v0.1Z"/><path d="M1822.1,352.7c37.1,0,63.9,25.9,63.9,61.8,0,35.7-27,61.8-64.4,61.8h-50.1V352.7h50.6Zm-29.9,104.9h30.4c24,0,42.4-17.8,42.4-42.9s-18.9-43.2-43.2-43.2h-29.5v86.1h-0.1Z"/><path d="M1929,371.4v33.4h60.4v18.7H1929v34.1h69.5v18.7h-90.4V352.7h88.2v18.7H1929Z"/></g><path d="M289.6,84.8c2.6-2.3,3.8-3.4,6.4-5.6a176.3,176.3,0,0,1,58,18.3,188.94,188.94,0,0,1,52.1,39.4,180.7,180.7,0,0,1,34.9,55,170.16,170.16,0,0,1,12.6,65.5A173.24,173.24,0,0,1,441,323.5a183.15,183.15,0,0,1-34.9,55A190,190,0,0,1,354,417.9a177,177,0,0,1-58,18.3c-2.6-2.3-3.8-3.4-6.4-5.6V400.2c1.8-2.1,2.9-3.5,4.6-5.5a136.85,136.85,0,0,0,43.6-15.1A148.69,148.69,0,0,0,376.5,349a140,140,0,0,0,26.1-41.5,131.66,131.66,0,0,0,9.5-50,130,130,0,0,0-9.5-49.3,138.74,138.74,0,0,0-26.1-41.5,148.25,148.25,0,0,0-38.7-30.6A136,136,0,0,0,294.2,121c-1.8-2.1-2.9-3.5-4.6-5.5V84.8Z"/><path d="M248.1,430.4c-2.6,2.3-3.8,3.4-6.4,5.6a176.3,176.3,0,0,1-58-18.3,187,187,0,0,1-52.1-39.4,179.5,179.5,0,0,1-34.9-55,177.2,177.2,0,0,1-.1-131.5,181.22,181.22,0,0,1,34.9-55,190,190,0,0,1,52.1-39.4,177,177,0,0,1,58-18.3c2.6,2.3,3.8,3.4,6.4,5.6v30.4c-1.8,2.1-2.9,3.5-4.6,5.5a139.4,139.4,0,0,0-43.9,15.1,142.34,142.34,0,0,0-38.7,30.6,145.16,145.16,0,0,0-25.7,41.5,129.58,129.58,0,0,0-9.5,49.3,131.66,131.66,0,0,0,9.5,50,143.8,143.8,0,0,0,25.7,41.5,142.44,142.44,0,0,0,82.6,45.7c1.8,2.1,2.9,3.5,4.6,5.5l0.1,30.6h0Z"/><path d="M248.1,509.4c-2.5,2.3-3.7,3.4-6.2,5.6-31.9-3.3-61.9-11.6-89.8-25.2a259.77,259.77,0,0,1-77.8-56.2,265.12,265.12,0,0,1-52.1-79.9A244.68,244.68,0,0,1,3,257.3a246.29,246.29,0,0,1,19-96.1A257.9,257.9,0,0,1,74.1,81.3,270.4,270.4,0,0,1,151.9,25,255.3,255.3,0,0,1,241.9.2c2.5,2.3,3.7,3.4,6.2,5.6V36.1c-1.9,2.1-3,3.5-5,5.6a214,214,0,0,0-74.9,21.7,233.9,233.9,0,0,0-64.5,47.5,220,220,0,0,0-43.3,66.5,203.07,203.07,0,0,0-15.8,79.9,207.56,207.56,0,0,0,15.8,80.3,216.47,216.47,0,0,0,43.3,66.9A229,229,0,0,0,168.2,452a213.14,213.14,0,0,0,74.9,21.7c1.9,2.1,3,3.5,5,5.6v30.1h0Z"/><path d="M289.6,5.7c2.5-2.3,3.7-3.4,6.2-5.6a258,258,0,0,1,90,24.8q44.7,21.9,77.8,56.3a260.89,260.89,0,0,1,52.1,79.9,247.74,247.74,0,0,1,19,96.1c0,34.3-6.3,66.4-19,96.5A262.58,262.58,0,0,1,385.8,489.9,273.44,273.44,0,0,1,296,515.1c-2.5-2.3-3.7-3.4-6.2-5.6V479.2c1.9-2.1,3-3.5,5-5.6a217.45,217.45,0,0,0,74.6-21.7,230.46,230.46,0,0,0,64.8-47.5,217.1,217.1,0,0,0,43.3-66.9,210.94,210.94,0,0,0,0-160.2,217,217,0,0,0-43.3-66.5,229.54,229.54,0,0,0-64.8-47.5,214.64,214.64,0,0,0-74.6-21.7c-1.9-2.1-3-3.5-5-5.6V5.7h-0.2Z"/></svg>